<svg width="60" height="51" viewBox="0 0 60 51" fill="none" xmlns="http://www.w3.org/2000/svg">
<path d="M0 34.6017L34.2507 0.402142L37.9682 4.53557L3.71749 38.7351L0 34.6017Z" fill="black"/>
<path d="M0 34.6017L34.2507 0.402142L37.9682 4.53557L3.71749 38.7351L0 34.6017Z" fill="black"/>
<rect width="48.455" height="5.55945" transform="matrix(0.68842 -0.725312 0.68842 0.725312 11.594 35.145)" fill="black"/>
<path d="M11.2209 46.4247L45.472 12.2248L49.1895 16.3582L14.9384 50.5581L11.2209 46.4247Z" fill="black"/>
<rect width="48.455" height="5.55945" transform="matrix(0.68842 -0.725312 0.68842 0.725312 22.8153 46.9677)" fill="black"/>
<path d="M7.62097 34.6387L15.5771 43.0212L11.7499 47.0536L3.79374 38.6711L7.62097 34.6387Z" fill="black"/>
<rect width="11.0469" height="5.41018" transform="matrix(0.68842 0.725312 -0.68842 0.725312 48.7019 3.95062)" fill="black"/>
</svg>
